<?xml version="1.0" encoding="utf-8"?>
<!-- Generator: Adobe Illustrator 27.0.0, SVG Export Plug-In . SVG Version: 6.00 Build 0)  -->
<svg version="1.1" id="Layer_1" xmlns="http://www.w3.org/2000/svg" xmlns:xlink="http://www.w3.org/1999/xlink" x="0px" y="0px"
	 viewBox="0 0 800 616" style="enable-background:new 0 0 800 616;" xml:space="preserve">
<style type="text/css">
	.st0{fill:#FFFFFF;}
</style>
<g>
	<polygon class="st0" points="325.7,223.8 458.5,489.9 546.4,489.9 367.3,128.9 	"/>
	<path class="st0" d="M172.2,379.9v109.9c0.6-0.3,1.3-0.5,2.1-0.5s1.5-0.2,2.1-0.5c11.2-2.9,21.8-7.9,31.8-15.1s18.9-15.8,26.5-26
		c7.7-10.2,13.7-21.7,18.2-34.4c4.4-12.7,6.7-26.1,6.7-40.2V128.9h-87.5L172.2,379.9L172.2,379.9z"/>
	<path class="st0" d="M78.5,475.5c-1.6-3.8-2.7-8.6-3.3-14.4c-0.6-5.7,0.8-12.4,4.3-20.1c4.1-10.5,4.1-21,0-31.3
		c-4.2-10.3-11.5-17.8-22-22.2c-5.1-2.2-10.4-3.3-15.8-3.1c-5.4,0.2-10.5,1.2-15.3,3.1s-9.1,4.8-12.9,8.6c-3.8,3.8-6.8,8.3-9.1,13.4
		c-8.9,20.4-2.7,39.4,18.6,56.9c7.3,6.1,14.7,10.4,22.2,13.2c7.5,2.7,14.4,4.7,20.8,6c7.3,1.3,14.3,1.8,21,1.4
		C83.2,483.9,80.4,480,78.5,475.5z"/>
	<path class="st0" d="M596.3,223.9l-69.7-97.8h-90.5c0,0,120.8,165.1,120.7,164.7C554.6,274.1,569.4,255,596.3,223.9z"/>
	<path class="st0" d="M708.6,126.5l-118,172.9c-8.6,12.7-13.3,27.6-13.3,43v144.7h78.4v-147c0-7.9,2.5-15.7,7.1-22.1l136.7-191.4
		L708.6,126.5L708.6,126.5z"/>
</g>
</svg>
